<svg width="169" height="70" viewBox="0 0 169 70" fill="none" xmlns="http://www.w3.org/2000/svg">
<g filter="url(#filter0_d_2_3790)">
<rect x="9.74121" y="12.9295" width="150" height="45.7089" rx="22.8545" fill="white"/>
</g>
<g filter="url(#filter1_d_2_3790)">
<rect x="9.74121" y="8.0744" width="150" height="45.7089" rx="22.8545" fill="white"/>
</g>
<path d="M71.4581 35.4288V24.7038H75.0881C75.5981 24.7038 76.0831 24.7588 76.5431 24.8688C77.0131 24.9788 77.4231 25.1588 77.7731 25.4088C78.1331 25.6488 78.4181 25.9688 78.6281 26.3688C78.8381 26.7588 78.9431 27.2388 78.9431 27.8088C78.9431 28.6288 78.7181 29.2788 78.2681 29.7588C77.8181 30.2388 77.2031 30.5638 76.4231 30.7338L79.6631 35.4288H77.8181L74.6981 30.8838H73.1231V35.4288H71.4581ZM73.1231 29.6088H75.1781C75.7981 29.6088 76.3031 29.4738 76.6931 29.2038C77.0831 28.9238 77.2781 28.4388 77.2781 27.7488C77.2781 27.3988 77.2231 27.1138 77.1131 26.8938C77.0131 26.6638 76.8681 26.4838 76.6781 26.3538C76.4981 26.2238 76.2781 26.1338 76.0181 26.0838C75.7581 26.0238 75.4781 25.9938 75.1781 25.9938H73.1231V29.6088ZM80.3649 31.4688C80.3649 30.9088 80.4499 30.3888 80.6199 29.9088C80.7999 29.4188 81.0499 28.9938 81.3699 28.6338C81.6899 28.2638 82.0799 27.9738 82.5399 27.7638C83.0099 27.5538 83.5349 27.4488 84.1149 27.4488C84.6049 27.4488 85.0549 27.5238 85.4649 27.6738C85.8849 27.8238 86.2499 28.0388 86.5599 28.3188C86.8699 28.5888 87.1199 28.9238 87.3099 29.3238C87.5099 29.7238 87.6299 30.1688 87.6699 30.6588C87.6899 30.8688 87.6999 31.0738 87.6999 31.2738C87.7099 31.4738 87.7149 31.6738 87.7149 31.8738H82.0149C82.0349 32.2238 82.0899 32.5488 82.1799 32.8488C82.2799 33.1388 82.4199 33.3938 82.5999 33.6138C82.7799 33.8238 83.0049 33.9888 83.2749 34.1088C83.5449 34.2288 83.8699 34.2888 84.2499 34.2888C84.7099 34.2888 85.0949 34.1538 85.4049 33.8838C85.7149 33.6138 85.9749 33.2838 86.1849 32.8938L87.6249 33.5238C87.2249 34.2138 86.7599 34.7288 86.2299 35.0688C85.7099 35.3988 85.0449 35.5638 84.2349 35.5638C83.6249 35.5638 83.0799 35.4638 82.5999 35.2638C82.1199 35.0538 81.7149 34.7688 81.3849 34.4088C81.0549 34.0388 80.7999 33.6038 80.6199 33.1038C80.4499 32.6038 80.3649 32.0588 80.3649 31.4688ZM82.0749 30.6438H86.0799C86.0199 30.0238 85.8399 29.5488 85.5399 29.2188C85.2399 28.8888 84.7649 28.7238 84.1149 28.7238C83.5249 28.7238 83.0599 28.9088 82.7199 29.2788C82.3899 29.6388 82.1749 30.0938 82.0749 30.6438ZM89.4903 38.0688V27.5838H91.0803V28.4538C91.4003 28.1338 91.7903 27.8888 92.2503 27.7188C92.7203 27.5388 93.1653 27.4488 93.5853 27.4488C94.2053 27.4488 94.7403 27.5588 95.1903 27.7788C95.6503 27.9888 96.0303 28.2788 96.3303 28.6488C96.6303 29.0188 96.8553 29.4488 97.0053 29.9388C97.1553 30.4288 97.2353 30.9538 97.2453 31.5138C97.2353 32.0538 97.1503 32.5688 96.9903 33.0588C96.8403 33.5488 96.6103 33.9788 96.3003 34.3488C96.0003 34.7188 95.6203 35.0138 95.1603 35.2338C94.7103 35.4538 94.1853 35.5638 93.5853 35.5638C93.1253 35.5638 92.6703 35.4838 92.2203 35.3238C91.7803 35.1638 91.4003 34.9188 91.0803 34.5888V38.0688H89.4903ZM91.0353 31.5738C91.0353 31.9538 91.0803 32.3138 91.1703 32.6538C91.2703 32.9838 91.4203 33.2688 91.6203 33.5088C91.8203 33.7488 92.0653 33.9388 92.3553 34.0788C92.6553 34.2188 93.0053 34.2888 93.4053 34.2888C93.8253 34.2888 94.1753 34.2138 94.4553 34.0638C94.7353 33.9138 94.9603 33.7088 95.1303 33.4488C95.3003 33.1888 95.4203 32.8888 95.4903 32.5488C95.5603 32.1988 95.5953 31.8338 95.5953 31.4538C95.5953 31.1038 95.5503 30.7638 95.4603 30.4338C95.3703 30.1038 95.2353 29.8138 95.0553 29.5638C94.8753 29.3138 94.6453 29.1138 94.3653 28.9638C94.0853 28.8038 93.7603 28.7238 93.3903 28.7238C92.9803 28.7238 92.6253 28.7988 92.3253 28.9488C92.0253 29.0988 91.7803 29.3038 91.5903 29.5638C91.4003 29.8238 91.2603 30.1288 91.1703 30.4788C91.0803 30.8188 91.0353 31.1838 91.0353 31.5738ZM98.9511 24.2838L100.571 23.5788V35.4288H98.9511V24.2838ZM102.699 31.7838C103.039 31.4538 103.454 31.2088 103.944 31.0488C104.434 30.8888 104.959 30.7938 105.519 30.7638C106.079 30.7338 106.584 30.7188 107.034 30.7188H107.079V30.2988C107.079 29.7688 106.939 29.3738 106.659 29.1138C106.389 28.8538 106.004 28.7238 105.504 28.7238C105.104 28.7238 104.749 28.8438 104.439 29.0838C104.129 29.3238 103.894 29.6688 103.734 30.1188L102.339 29.5188C102.709 28.7788 103.144 28.2488 103.644 27.9288C104.154 27.6088 104.809 27.4488 105.609 27.4488C106.529 27.4488 107.269 27.6988 107.829 28.1988C108.399 28.6888 108.684 29.3988 108.684 30.3288V35.4288H107.079V34.8138C106.789 35.0938 106.474 35.2888 106.134 35.3988C105.794 35.5088 105.389 35.5638 104.919 35.5638C104.539 35.5638 104.184 35.5188 103.854 35.4288C103.524 35.3288 103.234 35.1838 102.984 34.9938C102.744 34.7938 102.554 34.5438 102.414 34.2438C102.274 33.9438 102.204 33.5938 102.204 33.1938C102.204 32.5838 102.369 32.1138 102.699 31.7838ZM104.124 34.0938C104.344 34.2538 104.649 34.3338 105.039 34.3338C105.299 34.3338 105.549 34.3038 105.789 34.2438C106.039 34.1738 106.259 34.0688 106.449 33.9288C106.639 33.7888 106.789 33.6138 106.899 33.4038C107.019 33.1838 107.079 32.9288 107.079 32.6388V31.8288H106.239C106.009 31.8388 105.749 31.8588 105.459 31.8888C105.179 31.9088 104.914 31.9688 104.664 32.0688C104.424 32.1588 104.219 32.2938 104.049 32.4738C103.889 32.6538 103.809 32.8938 103.809 33.1938C103.809 33.6238 103.914 33.9238 104.124 34.0938ZM111.495 27.5838L113.61 32.8638L115.575 27.5838H117.21L112.92 38.0688H111.285L112.785 34.5138L109.8 27.5838H111.495Z" fill="black"/>
<path fill-rule="evenodd" clip-rule="evenodd" d="M53.8116 25.3661L53.3121 24.8665C52.93 24.4845 52.2765 24.6785 52.1649 25.2072L51.6283 27.748C51.528 28.2233 51.9434 28.6477 52.4207 28.5574L55.0088 28.0682C55.5462 27.9666 55.7504 27.3048 55.3637 26.9181L54.7583 26.3128C55.5357 25.7578 56.4542 25.4208 57.4181 25.3459C58.674 25.2484 59.9245 25.6022 60.9446 26.3439C61.9647 27.0855 62.6874 28.1662 62.9828 29.3917C63.2782 30.6171 63.1269 31.9069 62.5561 33.0289C61.9853 34.1509 61.0324 35.0316 59.8689 35.5126C58.7054 35.9936 57.4076 36.0432 56.2089 35.6526C55.0102 35.2621 53.9894 34.4569 53.3299 33.3819C52.7863 32.4957 52.5177 31.4741 52.5498 30.4456C52.5612 30.0808 52.3198 29.742 51.9594 29.6846C51.5981 29.627 51.2551 29.8739 51.2347 30.2392C51.1598 31.5795 51.4946 32.9176 52.2027 34.072C53.027 35.4157 54.3031 36.4221 55.8014 36.9104C57.2998 37.3986 58.922 37.3365 60.3764 36.7353C61.8308 36.1341 63.0219 35.0332 63.7354 33.6307C64.449 32.2281 64.6381 30.616 64.2688 29.0842C63.8996 27.5524 62.9961 26.2015 61.721 25.2744C60.4459 24.3474 58.8828 23.9051 57.3129 24.027C56.0343 24.1263 54.8194 24.5947 53.8116 25.3661Z" fill="black"/>
<defs>
<filter id="filter0_d_2_3790" x="0.775614" y="5.75703" width="167.931" height="63.6401" filterUnits="userSpaceOnUse" color-interpolation-filters="sRGB">
<feFlood flood-opacity="0" result="BackgroundImageFix"/>
<feColorMatrix in="SourceAlpha" type="matrix" values="0 0 0 0 0 0 0 0 0 0 0 0 0 0 0 0 0 0 127 0" result="hardAlpha"/>
<feOffset dy="1.79312"/>
<feGaussianBlur stdDeviation="4.4828"/>
<feComposite in2="hardAlpha" operator="out"/>
<feColorMatrix type="matrix" values="0 0 0 0 0.345098 0 0 0 0 0.427451 0 0 0 0 0.901961 0 0 0 0.14 0"/>
<feBlend mode="normal" in2="BackgroundImageFix" result="effect1_dropShadow_2_3790"/>
<feBlend mode="normal" in="SourceGraphic" in2="effect1_dropShadow_2_3790" result="shape"/>
</filter>
<filter id="filter1_d_2_3790" x="0.775614" y="0.901924" width="167.931" height="63.6401" filterUnits="userSpaceOnUse" color-interpolation-filters="sRGB">
<feFlood flood-opacity="0" result="BackgroundImageFix"/>
<feColorMatrix in="SourceAlpha" type="matrix" values="0 0 0 0 0 0 0 0 0 0 0 0 0 0 0 0 0 0 127 0" result="hardAlpha"/>
<feOffset dy="1.79312"/>
<feGaussianBlur stdDeviation="4.4828"/>
<feComposite in2="hardAlpha" operator="out"/>
<feColorMatrix type="matrix" values="0 0 0 0 0.345098 0 0 0 0 0.427451 0 0 0 0 0.901961 0 0 0 0.14 0"/>
<feBlend mode="normal" in2="BackgroundImageFix" result="effect1_dropShadow_2_3790"/>
<feBlend mode="normal" in="SourceGraphic" in2="effect1_dropShadow_2_3790" result="shape"/>
</filter>
</defs>
</svg>
