<svg width="69" height="69" viewBox="0 0 69 69" fill="none" xmlns="http://www.w3.org/2000/svg">
<g filter="url(#filter0_d_2_3696)">
<circle cx="34.3019" cy="32.4635" r="24.8236" transform="rotate(-180 34.3019 32.4635)" fill="white"/>
</g>
<path d="M25.8018 31.4634C25.2495 31.4634 24.8018 31.9111 24.8018 32.4634C24.8018 33.0157 25.2495 33.4634 25.8018 33.4634L25.8018 31.4634ZM43.5089 33.1705C43.8994 32.78 43.8994 32.1468 43.5089 31.7563L37.1449 25.3923C36.7544 25.0018 36.1212 25.0018 35.7307 25.3923C35.3402 25.7828 35.3402 26.416 35.7307 26.8065L41.3875 32.4634L35.7307 38.1202C35.3402 38.5108 35.3402 39.1439 35.7307 39.5344C36.1212 39.925 36.7544 39.925 37.1449 39.5344L43.5089 33.1705ZM25.8018 33.4634L42.8018 33.4634L42.8018 31.4634L25.8018 31.4634L25.8018 33.4634Z" fill="black"/>
<defs>
<filter id="filter0_d_2_3696" x="0.512674" y="0.467415" width="67.5784" height="67.5784" filterUnits="userSpaceOnUse" color-interpolation-filters="sRGB">
<feFlood flood-opacity="0" result="BackgroundImageFix"/>
<feColorMatrix in="SourceAlpha" type="matrix" values="0 0 0 0 0 0 0 0 0 0 0 0 0 0 0 0 0 0 127 0" result="hardAlpha"/>
<feOffset dy="1.79312"/>
<feGaussianBlur stdDeviation="4.4828"/>
<feComposite in2="hardAlpha" operator="out"/>
<feColorMatrix type="matrix" values="0 0 0 0 0.345098 0 0 0 0 0.427451 0 0 0 0 0.901961 0 0 0 0.07 0"/>
<feBlend mode="normal" in2="BackgroundImageFix" result="effect1_dropShadow_2_3696"/>
<feBlend mode="normal" in="SourceGraphic" in2="effect1_dropShadow_2_3696" result="shape"/>
</filter>
</defs>
</svg>
