<svg width="65" height="64" viewBox="0 0 65 64" fill="none" xmlns="http://www.w3.org/2000/svg">
<path d="M27.4498 0.00778462C42.3613 0.00778397 54.4495 12.0959 54.4495 27.0074C54.4495 41.9189 42.3613 54.0071 27.4498 54.0071C12.5383 54.0071 0.450195 41.9189 0.450194 27.0074C0.450193 12.0959 12.5383 0.00778527 27.4498 0.00778462ZM27.4498 43.2072C36.3967 43.2072 43.6496 35.9543 43.6496 27.0074C43.6496 18.0605 36.3967 10.8076 27.4498 10.8076C18.5029 10.8076 11.2501 18.0605 11.2501 27.0074C11.2501 35.9543 18.5029 43.2072 27.4498 43.2072Z" fill="url(#paint0_radial_2_3505)"/>
<path d="M27.4498 0.00778462C21.5063 0.00778488 15.7288 1.96897 11.0135 5.58717C6.29816 9.20538 2.90849 14.2784 1.37018 20.0194C-0.168118 25.7604 0.230923 31.8486 2.50542 37.3398C4.77992 42.8309 8.80276 47.418 13.95 50.3898C19.0973 53.3616 25.0813 54.5519 30.974 53.7761C36.8667 53.0003 42.3388 50.3018 46.5415 46.0991C50.7442 41.8963 53.4427 36.4243 54.2185 30.5316C54.9943 24.6389 53.804 18.6549 50.8322 13.5076L41.4793 18.9075C43.2623 21.9959 43.9765 25.5863 43.511 29.1219C43.0456 32.6575 41.4265 35.9408 38.9048 38.4624C36.3832 40.984 33.1 42.6032 29.5643 43.0686C26.0287 43.5341 22.4383 42.8199 19.3499 41.0369C16.2616 39.2538 13.8479 36.5015 12.4832 33.2068C11.1185 29.9122 10.8791 26.2592 11.802 22.8146C12.725 19.37 14.7588 16.3262 17.588 14.1553C20.4172 11.9844 23.8837 10.8076 27.4498 10.8076L27.4498 0.00778462Z" fill="url(#paint1_radial_2_3505)"/>
<path d="M27.4498 0.00778462C22.4105 0.00778484 17.4716 1.41814 13.1922 4.07927C8.91274 6.74041 5.46345 10.5461 3.23459 15.0658C1.00573 19.5855 0.0862587 24.6387 0.580205 29.6539C1.07415 34.669 2.9618 39.4458 6.02958 43.4438C9.09736 47.4418 13.2228 50.5014 17.9392 52.2766C22.6556 54.0517 27.7747 54.4714 32.7172 53.4883C37.6598 52.5052 42.2285 50.1584 45.9066 46.7135C49.5847 43.2686 52.2252 38.8631 53.5295 33.9955L43.0976 31.2002C42.3151 34.1208 40.7307 36.7641 38.5239 38.8311C36.3171 40.898 33.5758 42.3061 30.6103 42.8959C27.6447 43.4858 24.5733 43.234 21.7435 42.1689C18.9136 41.1038 16.4384 39.268 14.5977 36.8692C12.757 34.4704 11.6244 31.6044 11.3281 28.5953C11.0317 25.5862 11.5834 22.5543 12.9207 19.8424C14.258 17.1306 16.3276 14.8472 18.8953 13.2505C21.4629 11.6539 24.4262 10.8076 27.4498 10.8076L27.4498 0.00778462Z" fill="url(#paint2_radial_2_3505)"/>
<g filter="url(#filter0_d_2_3505)">
<path d="M55.5171 21.3771C55.7212 21.1729 56.0522 21.1729 56.2564 21.3771L60.0808 25.2015C60.2849 25.4056 60.2849 25.7366 60.0808 25.9408L30.0258 55.9957L25.4622 51.432L55.5171 21.3771Z" fill="url(#paint3_radial_2_3505)"/>
<path d="M55.5171 21.3771C55.7212 21.1729 56.0522 21.1729 56.2564 21.3771L60.0808 25.2015C60.2849 25.4056 60.2849 25.7366 60.0808 25.9408L54.3655 31.656L49.8018 27.0924L55.5171 21.3771Z" fill="#F1F1F1"/>
<path d="M55.5171 21.3771C55.7212 21.1729 56.0522 21.1729 56.2564 21.3771L60.0808 25.2015C60.2849 25.4056 60.2849 25.7366 60.0808 25.9408L57.4079 28.6136L52.8443 24.0499L55.5171 21.3771Z" fill="#E35376"/>
<path d="M24.1816 57.5843C23.9873 57.6364 23.8094 57.4585 23.8615 57.2642L25.4321 51.4028L30.043 56.0137L24.1816 57.5843Z" fill="#FEFEFE"/>
<path d="M24.2 57.6026C24.0056 57.6547 23.8278 57.4769 23.8798 57.2825L24.7271 54.1205L27.3619 56.7554L24.2 57.6026Z" fill="#5E5E5E"/>
</g>
<defs>
<filter id="filter0_d_2_3505" x="19.8523" y="19.224" width="44.3816" height="44.3878" filterUnits="userSpaceOnUse" color-interpolation-filters="sRGB">
<feFlood flood-opacity="0" result="BackgroundImageFix"/>
<feColorMatrix in="SourceAlpha" type="matrix" values="0 0 0 0 0 0 0 0 0 0 0 0 0 0 0 0 0 0 127 0" result="hardAlpha"/>
<feOffset dy="2"/>
<feGaussianBlur stdDeviation="2"/>
<feComposite in2="hardAlpha" operator="out"/>
<feColorMatrix type="matrix" values="0 0 0 0 0 0 0 0 0 0 0 0 0 0 0 0 0 0 0.14 0"/>
<feBlend mode="normal" in2="BackgroundImageFix" result="effect1_dropShadow_2_3505"/>
<feBlend mode="normal" in="SourceGraphic" in2="effect1_dropShadow_2_3505" result="shape"/>
</filter>
<radialGradient id="paint0_radial_2_3505" cx="0" cy="0" r="1" gradientUnits="userSpaceOnUse" gradientTransform="translate(14.1446 -4.17246) rotate(44.4229) scale(63.1073)">
<stop stop-color="#75C1FF"/>
<stop offset="1" stop-color="#306FA2"/>
</radialGradient>
<radialGradient id="paint1_radial_2_3505" cx="0" cy="0" r="1" gradientUnits="userSpaceOnUse" gradientTransform="translate(6.44019 4.55921) rotate(36.0112) scale(66.8304)">
<stop stop-color="#AFDBFF"/>
<stop offset="1" stop-color="#8FCDFF"/>
</radialGradient>
<radialGradient id="paint2_radial_2_3505" cx="0" cy="0" r="1" gradientUnits="userSpaceOnUse" gradientTransform="translate(15.4287 15.6022) rotate(46.6844) scale(52.784 56.6334)">
<stop stop-color="#0471CA"/>
<stop offset="1" stop-color="#104A79"/>
</radialGradient>
<radialGradient id="paint3_radial_2_3505" cx="0" cy="0" r="1" gradientUnits="userSpaceOnUse" gradientTransform="translate(63.5909 19.5515) rotate(135.853) scale(58.6691 42.5605)">
<stop stop-color="#FFD951"/>
<stop offset="1" stop-color="#FFC700"/>
</radialGradient>
</defs>
</svg>
